<svg width="32" height="28" viewBox="0 0 32 28" fill="none" xmlns="http://www.w3.org/2000/svg">
<path d="M31 1.48343C29.6942 2.43644 28.2483 3.16535 26.7182 3.64207C25.8969 2.66505 24.8055 1.97257 23.5914 1.65827C22.3774 1.34397 21.0993 1.42303 19.9301 1.88476C18.7609 2.34648 17.757 3.16858 17.0541 4.23989C16.3512 5.31119 15.9832 6.58 16 7.87472V9.2856C13.6036 9.34989 11.229 8.79999 9.08774 7.68488C6.94647 6.56976 5.10498 4.92405 3.72727 2.89431C3.72727 2.89431 -1.72727 15.5922 10.5455 21.2358C7.73708 23.2081 4.39158 24.1971 1 24.0575C13.2727 31.1119 28.2727 24.0575 28.2727 7.83239C28.2715 7.4394 28.235 7.04737 28.1636 6.66136C29.5554 5.2413 30.5375 3.44838 31 1.48343V1.48343Z" stroke="black" stroke-width="2" stroke-linecap="round" stroke-linejoin="round"/>
</svg>
