<svg width="98" height="51" viewBox="0 0 98 51" fill="none" xmlns="http://www.w3.org/2000/svg">
<path d="M14.9215 37.2165C16.942 40.5429 18.9124 43.8775 20.9047 47.2185C21.4323 48.1137 21.9862 49.1192 20.7918 49.8102C19.5206 50.5588 18.7587 49.5726 18.1796 48.651C14.6222 43.0404 11.071 37.4089 7.5699 31.769C5.32822 28.1501 3.10693 24.5029 0.941983 20.8264C-0.253309 18.7899 0.0972892 17.3856 2.2574 16.2109C9.44693 12.2655 16.6972 8.39482 23.9179 4.50412C25.804 3.48939 27.7198 2.4947 29.6371 1.53466C30.2506 1.23384 30.9438 0.944778 31.6129 0.933975C32.1522 0.91967 32.9487 1.19698 33.1665 1.57986C33.4 1.99009 33.2775 2.83312 32.9482 3.21663C32.3995 3.85581 31.6369 4.37574 30.8762 4.77069C22.651 9.0767 14.4024 13.3417 6.04894 17.6788C6.53151 17.8534 7.13266 18.1082 7.75273 18.2999C26.2189 24.0703 44.7055 29.8124 63.1732 35.6175C73.505 38.8622 83.8116 42.1909 94.1246 45.4986C94.854 45.7222 95.6349 45.9721 96.2089 46.4358C96.6644 46.8193 97.175 47.6525 97.0333 48.0449C96.8649 48.4866 95.9352 48.9693 95.3992 48.8933C93.8866 48.7044 92.387 48.3139 90.9204 47.8531C75.6795 43.1006 60.4589 38.3199 45.2384 33.5391C32.5278 29.5455 19.8032 25.5592 7.08481 21.5518C6.54442 21.3718 5.40288 20.9371 4.87511 20.7151C4.76831 20.9123 11.6946 31.9303 14.9215 37.2165Z" fill="#29F6F6"/>
</svg>
