<svg width="141" height="54" viewBox="0 0 141 54" fill="none" xmlns="http://www.w3.org/2000/svg">
<path d="M8.51378 42.3139C13.377 44.532 18.0576 46.6381 22.7221 48.7629C23.6552 49.1817 24.3129 49.4785 25.3444 50.2253C26.1184 50.7701 27.7252 51.9683 26.736 52.8531C25.8623 53.5152 25.1836 53.8915 23.448 53.3443C18.9792 51.9059 14.9365 49.7363 10.908 47.6091C7.3527 45.7279 4.68503 44.2299 1.68809 42.3481C0.28851 41.4691 0.449666 40.2792 1.85636 38.9385C3.11916 37.7356 4.39901 36.4833 5.81036 35.491C10.8859 31.8894 16.004 28.4153 21.1241 24.88C21.7583 24.4374 22.2354 24.0596 23.0399 23.6254C24.0177 23.1077 24.7134 22.6821 25.1713 23.4175C25.6151 24.1105 24.6192 25.2095 24.0304 25.6877C19.1724 29.7734 9.04944 38.0643 8.58273 38.607C11.918 38.5916 14.9872 38.6497 18.1086 38.5292C39.8683 37.584 61.7702 35.058 84.1134 27.3308C101.8 21.2144 118.971 13.2205 135.535 2.80705C136.515 2.19758 137.54 1.65436 138.533 1.14856C139.874 0.445242 140.638 0.293188 140.883 0.892901C141.171 2.12142 140.327 2.80724 139.688 3.40275C138.426 4.60567 136.952 5.61165 135.525 6.59208C116.354 19.5356 96.1386 28.1801 75.3469 34.3982C54.0073 40.7817 33.299 42.3326 12.8324 42.0987C11.7639 42.0437 9.0457 42.1672 8.51378 42.3139Z" fill="#62F4F4"/>
</svg>
