<svg width="122" height="63" viewBox="0 0 122 63" fill="none" xmlns="http://www.w3.org/2000/svg">
<path fill-rule="evenodd" clip-rule="evenodd" d="M120.663 60.6545C119.71 60.0154 119.65 60.0093 119.144 60.4988C118.888 60.7459 118.575 60.904 118.447 60.8503C118.117 60.7112 117.757 61.6353 117.908 62.2353C118.098 62.9899 118.667 63.1012 119.34 62.5158C119.671 62.2292 120.057 62.0435 120.199 62.1032C120.417 62.195 121.015 61.6903 121.244 61.2214C121.28 61.1479 121.019 60.8929 120.663 60.6545ZM116.989 61.6587C116.739 61.1282 116.644 61.0701 116.341 61.2641C116.146 61.389 115.951 61.5637 115.908 61.6518C115.865 61.74 115.687 61.7519 115.511 61.6782C115.148 61.5255 115.689 60.7139 116.208 60.6312C116.378 60.6043 116.486 60.5067 116.449 60.4147C116.343 60.1545 114.7 59.9991 114.346 60.2161C114.103 60.365 114.016 60.2997 113.97 59.9335C113.938 59.6714 113.808 59.4137 113.682 59.3607C113.556 59.3078 113.469 59.3742 113.489 59.5083C113.556 59.9637 112.617 60.0126 111.982 59.5867C111.596 59.3278 111.32 59.26 111.253 59.4068C111.19 59.5418 110.922 59.4965 110.625 59.3006C110.227 59.0392 110.063 59.0495 109.927 59.345C109.829 59.5575 109.907 59.8508 110.1 59.9971C110.424 60.2419 110.418 60.2512 110.028 60.1146C109.796 60.0332 109.436 59.7556 109.23 59.4976C109.023 59.24 108.617 58.8873 108.328 58.7144C108.038 58.5413 107.784 58.2906 107.765 58.1572C107.744 58.0187 107.546 57.9407 107.302 57.9752C107.067 58.0086 106.986 58.0845 107.122 58.1441C107.259 58.2035 107.244 58.5473 107.09 58.9082C106.906 59.3406 106.7 59.5177 106.486 59.4276C106.307 59.3523 106.228 59.145 106.31 58.9668C106.392 58.7886 106.296 58.5738 106.095 58.4894C105.852 58.3872 105.832 58.2391 106.033 58.0453C106.278 57.8098 106.224 57.7447 105.747 57.7012C105.423 57.6717 104.65 57.4295 104.028 57.1632C103.406 56.8966 102.771 56.7589 102.616 56.8571C102.431 56.9747 102.389 56.9137 102.495 56.6795C102.8 56.0015 101.677 55.5233 101.353 56.1926C101.195 56.5173 101.168 56.5038 101.052 56.0449C100.983 55.7671 100.809 55.4912 100.667 55.4313C100.525 55.3715 100.456 55.2186 100.515 55.0914C100.574 54.9644 100.377 54.7949 100.079 54.7147C99.7814 54.6346 99.5278 54.6755 99.5162 54.8052C99.5045 54.9351 99.2215 55.0255 98.887 55.0057C98.4994 54.9829 98.2883 54.8747 98.3043 54.7071C98.3184 54.5627 98.1774 54.4675 97.9912 54.4954C97.5103 54.5674 96.6038 54.1772 96.7112 53.9443C96.7606 53.8372 96.6284 53.7411 96.4171 53.7311C96.1603 53.719 96.1227 53.6268 96.3036 53.453C96.4705 53.2924 96.4345 53.1344 96.2096 53.0397C96.0091 52.9553 95.8059 52.9714 95.7579 53.0753C95.6406 53.3298 94.5386 52.8513 94.4903 52.5251C94.4692 52.3813 94.1948 52.3479 93.8719 52.4498C93.3255 52.6222 93.311 52.6097 93.624 52.2333C93.8148 52.0041 93.8485 51.7882 93.7034 51.7271C93.5639 51.6684 93.3828 51.7663 93.3006 51.9445C93.201 52.1605 92.9244 52.1731 92.4708 51.9822C91.9417 51.7595 91.7462 51.7918 91.5912 52.1279C91.4816 52.3655 91.2899 52.5169 91.1652 52.4644C91.0405 52.4119 90.9859 52.266 91.0439 52.1402C91.1019 52.0145 90.9977 51.9315 90.812 51.956C90.5882 51.9856 90.5748 51.9044 90.7717 51.7152C91.1886 51.3144 90.8026 50.6663 90.1678 50.7012C89.2717 50.7504 87.9665 50.0916 87.3559 49.2816L86.7682 48.502L86.063 48.9993C85.6751 49.2727 85.1817 49.4886 84.9665 49.4791C84.5223 49.4593 84.2272 48.5554 84.5604 48.2352C84.7035 48.0976 84.503 47.907 83.9866 47.6897C83.5087 47.4886 83.0871 47.4574 82.9267 47.6114C82.593 47.9322 82.1838 47.2769 82.4108 46.7848C82.5375 46.5101 82.4476 46.48 81.8046 46.5813C81.0922 46.6939 81.0347 46.6682 80.7797 46.1255C80.5951 45.7324 80.4252 45.6057 80.2426 45.7252C80.0958 45.821 79.4386 45.7427 78.7822 45.5514C78.1258 45.3597 77.7423 45.2002 77.9303 45.1965C78.1182 45.193 78.3502 45.0201 78.446 44.8123C78.6644 44.3386 77.9234 44.0518 77.129 44.3027C76.7791 44.4131 76.2364 44.3286 75.7309 44.0852C75.0434 43.7541 74.9413 43.6085 75.1215 43.2154C75.2521 42.931 75.1798 42.6109 74.9394 42.4089C74.4587 42.0049 72.7021 41.5507 72.396 41.7512C71.9998 42.0106 71.7874 41.742 71.8342 41.041C71.8597 40.6616 71.8162 40.4694 71.738 40.6137C71.6597 40.7582 71.3404 40.7688 71.0286 40.6375C70.6757 40.489 70.4051 40.5214 70.3122 40.7229C70.23 40.9011 70.0607 41.004 69.936 40.9515C69.8112 40.899 69.7764 40.7103 69.8586 40.5321C70.0186 40.1852 69.8192 40.0667 67.6146 39.1965C66.3323 38.6904 66.2251 38.5976 66.2163 37.9836C66.2058 37.2478 65.4503 36.7591 64.9969 37.195C64.8433 37.3424 64.6565 37.3781 64.5813 37.2739C64.5064 37.1699 64.3238 37.1642 64.1757 37.2611C63.9778 37.3906 63.8939 37.3529 63.8594 37.1195C63.8337 36.9444 63.5722 36.6858 63.2784 36.5443C62.9847 36.4032 62.6227 36.0535 62.4741 35.7674C62.2208 35.2796 62.1999 35.2816 62.1386 35.8003C62.0854 36.2509 61.9866 36.3166 61.6044 36.1558C61.3466 36.0473 61.1729 35.8778 61.2185 35.7788C61.3416 35.5121 59.9614 34.442 59.4553 34.4114C59.2148 34.3968 58.8948 34.4577 58.7444 34.5465C58.578 34.6449 58.5356 34.5647 58.6358 34.3415C58.8902 33.7764 58.5615 33.5256 57.637 33.5796C57.0962 33.6113 56.8336 33.5431 56.9045 33.3893C56.9653 33.2575 56.8672 33.1396 56.6868 33.1274C56.2805 33.0993 55.6697 32.4126 55.911 32.2547C56.0079 32.1913 55.9221 32.0543 55.7202 31.9508C55.1216 31.6434 54.6555 31.2812 54.5609 31.05C54.5124 30.9308 54.1934 30.7159 53.8524 30.5723C53.4051 30.3841 53.0031 30.4491 52.4128 30.8047C51.816 31.1646 51.6795 31.1858 51.9093 30.8835C52.1594 30.555 52.1266 30.4535 51.7514 30.3957C51.4909 30.3557 51.3294 30.2108 51.3926 30.0739C51.4767 29.8914 51.3569 29.836 50.9412 29.8659C50.1692 29.9215 49.9433 29.5213 50.418 28.9388C50.7676 28.5102 50.7568 28.4766 50.3217 28.6373C49.2004 29.0516 46.1222 27.7087 45.6734 26.6097C45.479 26.1338 45.2338 25.9181 44.8403 25.8776C43.8678 25.7774 42.8622 25.3981 42.8208 25.1157C42.7967 24.9519 42.576 24.9189 42.2669 25.033C41.6047 25.2776 41.2236 25.1126 41.4278 24.6699C41.5496 24.4059 41.4139 24.275 40.8702 24.1316C40.4752 24.0273 40.1591 23.8202 40.1677 23.6717C40.1773 23.5053 39.7251 23.4408 38.9906 23.5037C38.1284 23.5775 37.7595 23.5114 37.6591 23.2657C37.5827 23.0786 37.2345 22.8054 36.8852 22.6584C36.4344 22.4687 36.2987 22.2808 36.4178 22.0103C36.5761 21.6499 36.5631 21.6446 36.1759 21.9129C35.8871 22.1128 35.6869 22.0953 35.4959 21.8537C35.177 21.4505 34.3285 21.2735 34.1868 21.5806C34.1326 21.6981 33.9515 21.6652 33.7844 21.5072C33.567 21.3015 33.4751 21.3283 33.4614 21.6016C33.4367 22.0985 33.214 21.993 32.9065 21.3379C32.7386 20.9805 32.2047 20.6126 31.2228 20.178C30.1743 19.7139 29.8476 19.4804 30.0162 19.3164C30.3178 19.0229 29.2931 18.5811 28.764 18.7766C28.5411 18.8589 28.4157 18.8273 28.473 18.7031C28.5304 18.5785 27.8045 18.135 26.783 17.67C25.5867 17.1259 24.9555 16.935 24.8815 17.0955C24.8206 17.2275 24.4993 17.1972 24.1677 17.0285C23.4406 16.6586 22.4276 16.5444 22.3013 16.8183C22.2492 16.9312 22.4387 17.0001 22.7421 16.9782C23.1513 16.9487 23.2696 17.0328 23.2542 17.3423C23.2374 17.6816 23.1104 17.6674 22.4431 17.2512C22.0081 16.9796 21.4759 16.6778 21.2603 16.5798C21.0449 16.482 20.9049 16.323 20.9494 16.2264C20.9939 16.1299 20.7753 15.9434 20.4634 15.8122C20.1516 15.681 19.8572 15.6587 19.8093 15.7626C19.7614 15.8665 19.569 15.8872 19.382 15.8084C19.1948 15.7297 18.9745 15.8111 18.8923 15.9893C18.7107 16.383 18.213 16.2092 17.9916 15.6747C17.862 15.362 17.7505 15.3406 17.4315 15.568C17.2124 15.7241 16.7832 15.7465 16.4775 15.6178C16.172 15.4893 15.87 15.4963 15.8068 15.6335C15.7396 15.7791 15.5835 15.6525 15.4315 15.3291C15.2082 14.8534 15.0791 14.7844 14.5185 14.8404C14.1591 14.8762 13.6103 15.0222 13.2985 15.165C12.542 15.5112 10.4142 14.7798 9.87406 13.988C9.49942 13.438 9.50379 13.4239 10.2036 12.9382C10.5938 12.6675 11.1069 12.4533 11.3444 12.4622C12.1325 12.492 14.3002 11.683 14.68 11.2171C14.8859 10.9645 15.4132 10.7173 15.8518 10.6674C17.4081 10.4903 18.3629 10.091 18.6339 9.50354C18.7906 9.16356 19.1546 8.88058 19.5241 8.81093C19.8682 8.74604 20.1297 8.55949 20.1057 8.39616C20.0816 8.23284 20.181 8.14933 20.3264 8.21051C20.4718 8.27169 20.5993 8.15128 20.6096 7.94282C20.6226 7.68519 20.7713 7.62399 21.075 7.75178C21.3206 7.85514 21.5632 7.84941 21.6141 7.73904C21.6649 7.62888 21.9579 7.44555 22.2653 7.3322C22.5728 7.21864 22.9144 6.98869 23.0248 6.82106C23.135 6.65311 23.3366 6.49318 23.4724 6.46523C23.9424 6.36872 25.7769 5.12718 26.1793 4.63342C26.4015 4.36068 26.6709 4.17462 26.7777 4.21957C26.8845 4.26452 27.4198 4.14157 27.9669 3.94628C28.5141 3.75098 29.1079 3.65265 29.2861 3.72767C29.6712 3.88972 30.5206 3.31327 30.4639 2.92833C30.442 2.78034 30.5397 2.70771 30.6805 2.76697C31.1534 2.96596 31.9357 2.51088 32.2882 1.8318C32.7136 1.01217 32.2339 0.549044 31.5653 1.13378C31.3161 1.3518 30.9017 1.45828 30.6444 1.37036C30.387 1.28244 29.9538 1.12902 29.6815 1.02963C29.0511 0.799195 26.2633 1.76955 25.2011 2.58891C24.7551 2.93304 24.2336 3.14894 24.0424 3.06849C23.6015 2.88296 22.7548 3.42005 22.7309 3.90054C22.7184 4.15244 22.4766 4.21989 21.9492 4.11812C21.2398 3.98104 20.9591 4.16571 20.7166 4.92946C20.671 5.07227 20.464 5.10123 20.2566 4.99381C20.0398 4.88142 19.6231 5.00396 19.2778 5.28165C18.5842 5.83908 17.5425 6.26523 17.2125 6.12636C17.0878 6.07387 16.9057 6.20437 16.8079 6.41648C16.7101 6.62859 15.9165 7.01936 15.0445 7.28481C14.1721 7.55037 13.0246 8.02098 12.4944 8.33044C11.9638 8.64002 11.395 8.83651 11.2299 8.76703C10.4399 8.43462 8.95518 8.75918 8.20508 9.4285C7.77297 9.81408 7.40329 10.2099 7.3838 10.308C7.3643 10.406 7.1442 10.4006 6.89473 10.2956C6.64526 10.1906 6.39632 10.2019 6.34154 10.3207C6.28675 10.4395 5.98678 10.4294 5.67495 10.2981C5.32207 10.1496 5.05149 10.182 4.95855 10.3835C4.87637 10.5617 4.51537 10.816 4.15632 10.9486C3.79727 11.0812 3.45868 11.2869 3.40389 11.4057C3.3491 11.5245 3.20222 11.5788 3.07749 11.5263C2.95275 11.4738 2.78725 11.5685 2.70955 11.7369C2.63195 11.9052 2.43746 12.031 2.27701 12.0166C2.11688 12.0021 1.79635 12.3412 1.56502 12.77C1.25522 13.3443 1.23422 13.5877 1.48483 13.6931C1.769 13.8127 1.7289 13.8774 1.24079 14.0849C0.773198 14.2837 0.665729 14.4451 0.702013 14.8932C0.738453 15.3379 0.855838 15.4451 1.27348 15.415C1.64824 15.3881 1.79122 15.4627 1.77068 15.6746C1.75483 15.8381 2.1303 16.1643 2.60506 16.3997C3.08005 16.6351 3.45715 16.9437 3.44339 17.0857C3.42962 17.2277 3.66504 17.4477 3.96644 17.5745C4.26807 17.7015 4.46866 17.9048 4.41248 18.0266C4.3564 18.1482 4.52298 18.4476 4.78272 18.6918C5.04246 18.936 5.21212 19.2287 5.15963 19.3425C5.10723 19.4561 5.23991 19.6969 5.45462 19.8772C5.66932 20.0576 5.78796 20.3288 5.71823 20.48C5.6485 20.6312 5.79555 20.9729 6.04503 21.2394C6.29441 21.506 6.46089 21.8056 6.41487 21.9054C6.36885 22.0052 6.76675 22.7267 7.29911 23.5083C7.83147 24.29 8.2349 25.0006 8.19574 25.0873C8.08449 25.3332 9.49245 28.9255 9.74816 29.0481C9.8734 29.1083 10.2126 29.9652 10.502 30.9525C10.7914 31.9396 11.3056 33.2029 11.6446 33.7597C11.9836 34.3164 12.2162 34.8027 12.1617 34.8404C11.8937 35.0252 11.9317 35.3695 12.3446 36.4989C12.5915 37.1743 13.0161 38.4081 13.288 39.2408C13.5596 40.0734 13.9952 40.9128 14.2557 41.106C14.7288 41.4571 14.6877 41.8744 14.0757 42.9355C13.6849 43.6132 13.9137 44.299 14.4796 44.1459C15.0175 44.0001 15.0883 44.1638 14.8146 44.9216C14.5873 45.5512 15.0669 46.0097 15.338 45.422C15.4248 45.2339 15.6038 45.1733 15.736 45.2877C15.8682 45.4021 16.1369 45.4378 16.3336 45.3672C16.53 45.2966 17.1119 45.1433 17.6271 45.0263C18.6076 44.804 19.6722 43.9289 19.5953 43.4085C19.5707 43.2411 19.6899 42.8552 19.8604 42.5508C20.0308 42.2465 20.0727 41.8115 19.9532 41.5838C19.8339 41.3564 19.7964 41.0396 19.8699 40.8802C19.9435 40.7206 19.8475 40.4003 19.6567 40.1681C19.4659 39.9359 19.3658 39.6287 19.4341 39.4851C19.521 39.3032 19.5768 39.3378 19.6184 39.5993C19.6609 39.8648 19.757 39.923 19.9472 39.7983C20.4034 39.4997 19.8847 37.2152 19.2826 36.869C18.8806 36.6379 18.8032 36.4246 18.9719 36.0112C19.4504 34.8374 19.47 34.6734 19.1475 34.5376C18.9645 34.4606 18.9185 34.2963 19.0457 34.1724C19.3102 33.9149 18.6781 32.0201 18.2689 31.8441C18.12 31.7799 17.9076 31.3949 17.797 30.9888C17.6865 30.5825 17.4492 29.8415 17.27 29.3423C17.0906 28.8428 16.9895 28.3358 17.045 28.2155C17.1425 28.004 16.9215 27.4357 16.115 25.8234C15.8393 25.2721 15.6336 25.0957 15.377 25.1905C14.6478 25.4598 14.3722 25.0892 14.844 24.4736C15.2144 23.9901 15.2191 23.8853 14.8707 23.8686C14.5507 23.8537 14.5288 23.772 14.7806 23.5302C14.9926 23.3265 15.0011 23.2264 14.8044 23.2524C14.6355 23.2747 14.3448 23.0013 14.1586 22.6446C13.9724 22.2879 13.9016 22.0268 14.0015 22.0639C14.1013 22.1013 14.1637 21.896 14.1402 21.6075C14.1166 21.3193 13.9357 21.0758 13.7378 21.0662C13.5034 21.0553 13.4329 20.8201 13.5356 20.3913C13.622 20.0295 13.7151 19.7279 13.7421 19.7215C13.7692 19.7151 14.0666 19.7407 14.4029 19.7785C14.7913 19.8223 14.9263 19.9049 14.7729 20.0054C14.5499 20.1514 14.8259 20.2805 16.805 20.9557C17.1723 21.0812 17.3948 20.9979 17.5413 20.6804C17.6851 20.3685 17.8384 20.3079 18.0285 20.4877C18.1811 20.6319 18.52 20.6708 18.7817 20.5744C19.0472 20.4761 19.6778 20.5754 20.2085 20.7988C21.0284 21.1438 21.1 21.2273 20.7279 21.4042C20.4904 21.517 20.3305 21.6334 20.3724 21.6629C20.7961 21.9609 21.4312 22.2281 21.4776 22.128C21.5497 21.9721 23.8598 22.9595 24.0872 23.2434C24.1783 23.3571 25.0301 23.7602 25.9805 24.1392C27.1905 24.6218 27.9235 24.7882 28.4256 24.6936C28.8945 24.6052 29.5872 24.7455 30.4265 25.0987C31.5582 25.575 31.7031 25.7048 31.65 26.1939C31.5952 26.6996 31.6165 26.7168 31.8909 26.3868C32.1322 26.0966 32.2035 26.1011 32.25 26.409C32.2974 26.7232 32.4146 26.779 32.8936 26.7152C33.216 26.6721 33.4441 26.7142 33.4005 26.8086C33.357 26.903 33.4914 27.0743 33.6989 27.1892C33.9064 27.3042 34.4057 27.5867 34.8084 27.8176C35.2108 28.0483 35.8248 28.2512 36.1728 28.2688C36.5209 28.2863 36.7246 28.3531 36.6256 28.4175C36.5266 28.4818 37.2165 28.8207 38.1585 29.1704C39.547 29.6858 39.8436 29.8666 39.7247 30.1243C39.5218 30.5643 40.034 30.9903 40.4998 30.769C41.0663 30.4995 41.9058 30.6798 41.7417 31.0355C41.6346 31.2677 42.121 31.5454 44.0086 32.3297C45.9848 33.151 46.4585 33.4279 46.6749 33.8883C46.9198 34.41 46.9775 34.4358 47.5176 34.2654C47.8364 34.1648 48.2678 34.1542 48.4762 34.242C48.6846 34.3297 48.8928 34.3198 48.9387 34.2202C48.9847 34.1204 49.3436 34.0352 49.7363 34.031C50.4171 34.0235 50.4334 34.0468 50.083 34.5313C49.881 34.8107 49.7872 35.0129 49.8746 34.9806C49.9621 34.9483 50.1168 35.1255 50.2182 35.3743C50.4631 35.9736 50.7856 36.0874 50.9891 35.6463C51.1373 35.3249 51.1814 35.3474 51.4272 35.8707C51.673 36.394 51.7171 36.4164 51.8653 36.095C52.0723 35.6462 52.29 35.728 52.4235 36.3052C52.5029 36.6473 52.6819 36.7585 53.1945 36.7844C53.6188 36.8056 53.9686 36.9525 54.1541 37.1869C54.3143 37.3897 54.589 37.5368 54.764 37.5137C54.939 37.4907 55.119 37.6471 55.1637 37.8614C55.2205 38.1334 55.3118 38.1902 55.466 38.049C55.7086 37.8272 56.3152 38.216 57.0019 39.034C57.54 39.6746 58.6486 40.1768 58.8001 39.8485C58.8607 39.7169 59.0376 39.7297 59.1931 39.8769C59.3488 40.0239 59.5195 40.0501 59.5725 39.9352C59.6256 39.8201 59.7711 39.7689 59.8958 39.8213C60.0205 39.8738 60.0623 40.0475 59.9886 40.2073C59.9149 40.3671 59.9704 40.7441 60.1117 41.045C60.3436 41.539 60.4179 41.5741 60.8739 41.4057C61.1516 41.3031 61.4881 41.2652 61.6219 41.3215C61.7555 41.3777 61.939 41.2628 62.0297 41.0662C62.1798 40.7407 62.2182 40.7592 62.4591 41.272C62.6581 41.6959 63.1572 42.0271 64.4805 42.614C65.8423 43.2177 66.1916 43.4534 66.0337 43.6624C65.884 43.8607 65.9872 43.9477 66.4238 43.9909C67.3334 44.0809 68.0879 44.4701 68.1538 44.8832C68.199 45.1669 68.2443 45.1908 68.3433 44.9833C68.4305 44.8 68.6385 44.8334 68.9776 45.0847C69.2818 45.3105 69.5246 45.3665 69.5893 45.2263C69.6484 45.0982 69.8186 45.109 69.9676 45.2498C70.1179 45.392 70.1122 45.6274 69.9551 45.7784C69.7503 45.9752 69.8024 46.0766 70.1425 46.1431C70.4015 46.1938 70.6412 46.1087 70.6752 45.9543C70.7092 45.7997 70.8903 45.7377 71.0774 45.8164C71.2645 45.8951 71.4624 45.8624 71.5172 45.7436C71.6648 45.4235 72.0757 45.6658 72.2947 46.202C72.4003 46.4605 72.5912 46.6583 72.719 46.6414C72.847 46.6245 73.0097 46.8049 73.081 47.042C73.1942 47.4196 73.2726 47.4505 73.7086 47.2894C73.9828 47.1881 74.461 47.2475 74.7718 47.4216C75.2341 47.6804 75.2794 47.8305 75.0206 48.2496C74.7887 48.6257 74.7986 48.7052 75.0585 48.5497C75.359 48.3698 75.5266 48.4491 76.1729 49.078C77.0622 49.9431 77.7362 50.073 77.8121 49.3939C77.8944 48.6612 78.8182 49.2024 79.1871 50.1994C79.4696 50.9631 79.6586 51.1141 81.1834 51.7949C82.1097 52.2085 83.2187 52.7763 83.6482 53.0563C84.1639 53.393 84.4658 53.4855 84.5379 53.3291C84.598 53.1989 84.9182 53.0729 85.2498 53.0492C85.7601 53.0125 85.8071 53.0492 85.5566 53.29C85.1173 53.7122 85.4885 54.0371 86.4341 54.0582C87.0761 54.0726 87.2648 54.146 87.2428 54.3735C87.207 54.743 87.8175 55.0257 87.9641 54.7078C88.0312 54.5624 88.2973 54.6319 88.6707 54.8921C89.2145 55.2714 89.2809 55.2596 89.3916 54.7646C89.4755 54.39 89.5193 54.476 89.532 55.0398C89.5475 55.7383 89.672 55.9111 90.371 56.2053C90.8225 56.3953 91.4078 56.4708 91.6721 56.3734C91.9363 56.2757 92.1143 56.2784 92.0679 56.379C91.9553 56.6231 93.8844 57.2322 94.3727 57.1065C94.6256 57.0414 94.7228 57.0813 94.6574 57.2232C94.4735 57.6219 96.8854 58.6393 97.7377 58.5223C98.4539 58.4239 100.105 58.8653 100.087 59.1502C100.074 59.3578 100.181 59.3972 100.482 59.2959C100.809 59.1858 100.919 59.2572 101.007 59.6359C101.101 60.0409 101.196 60.0943 101.616 59.9806C101.89 59.9064 102.08 59.918 102.039 60.0066C101.999 60.0952 102.18 60.1092 102.444 60.0379C102.707 59.9668 102.929 59.7619 102.938 59.5828C102.948 59.3787 103.056 59.3535 103.228 59.5157C103.535 59.8062 103.347 60.4279 102.996 60.2804C102.872 60.2279 102.718 60.2972 102.655 60.4344C102.586 60.5836 102.772 60.6104 103.119 60.501C103.438 60.4004 103.92 60.4113 104.191 60.5252C104.462 60.6392 104.728 60.6352 104.783 60.5164C104.838 60.3976 105.002 60.3507 105.148 60.4122C105.294 60.4737 105.675 60.4416 105.994 60.341C106.538 60.1691 106.56 60.1864 106.359 60.6236C106.241 60.8796 106.217 61.1293 106.306 61.1784C106.395 61.2274 106.728 61.4298 107.046 61.6277C107.366 61.8267 107.671 61.8878 107.728 61.7645C107.785 61.6416 107.984 61.6056 108.171 61.6843C108.358 61.763 108.579 61.6817 108.661 61.5035C108.743 61.3253 108.912 61.2224 109.037 61.2749C109.162 61.3274 109.223 61.4598 109.172 61.5693C109.122 61.6786 109.374 61.9723 109.731 62.222C110.215 62.5594 110.493 62.6151 110.812 62.4391C111.048 62.309 111.358 62.2515 111.5 62.3114C111.642 62.3712 111.823 62.2809 111.901 62.1107C111.995 61.9065 112.273 61.905 112.716 62.1058C113.085 62.2734 113.351 62.4908 113.305 62.5891C113.203 62.812 114.551 62.8229 115.182 62.6043C115.504 62.4928 115.643 62.5294 115.624 62.7207C115.605 62.9221 115.752 62.9885 116.156 62.9594C116.464 62.9375 116.723 62.7647 116.733 62.576C116.742 62.3873 116.869 62.2435 117.015 62.2567C117.161 62.2698 117.149 62.0006 116.989 61.6587ZM97.2587 55.1466C97.111 55.1662 96.9718 55.0563 96.949 54.9025C96.9265 54.7488 97.067 54.6901 97.2614 54.7719C97.6598 54.9396 97.6586 55.0938 97.2587 55.1466ZM94.7408 56.131C94.505 56.1197 94.4308 56.0451 94.5666 55.9563C94.697 55.8709 94.8996 55.8414 95.0171 55.8908C95.3432 56.028 95.1999 56.1526 94.7408 56.131ZM93.3578 56.74C92.8525 56.5274 92.8285 56.4585 93.1981 56.2829C93.5294 56.1254 93.6808 56.1659 93.8307 56.4516C94.1079 56.9801 94.0347 57.0249 93.3578 56.74ZM94.1188 54.868C94.0279 54.742 93.9957 54.5477 94.0473 54.4358C94.0989 54.3239 94.2431 54.2755 94.3678 54.328C94.4926 54.3805 94.5247 54.5751 94.4393 54.7602C94.3539 54.9453 94.2096 54.9939 94.1188 54.868ZM90.53 54.8482C90.3314 54.8389 90.263 54.6727 90.366 54.4493C90.469 54.226 90.6436 54.162 90.7848 54.2957C90.9181 54.4217 90.9921 54.6014 90.949 54.6947C90.906 54.788 90.7173 54.8572 90.53 54.8482ZM56.6102 36.7184C56.4035 36.7085 56.2427 36.5372 56.2526 36.3376C56.2646 36.0979 56.4223 36.0384 56.7171 36.1625C57.2333 36.3797 57.1631 36.7445 56.6102 36.7184ZM51.0487 32.1073C51.0094 32.0116 51.1594 31.8666 51.3822 31.7852C51.7039 31.6678 51.7183 31.7035 51.4534 31.9596C51.2699 32.1367 51.0878 32.2032 51.0487 32.1073ZM48.5732 33.2511C48.2864 33.4309 48.2657 33.3466 48.4802 32.8744C48.6397 32.5234 48.8266 32.363 48.9219 32.4952C49.1272 32.7794 49.0463 32.9547 48.5732 33.2511ZM24.7496 18.3252C24.7006 18.3046 24.6689 18.1172 24.6792 17.9087C24.6897 17.7003 24.7971 17.5714 24.9178 17.6222C25.0387 17.6731 25.0703 17.8605 24.9881 18.0387C24.9059 18.2169 24.7985 18.3458 24.7496 18.3252ZM22.846 22.4245C22.7909 22.4013 22.7277 22.2587 22.7054 22.1074C22.6831 21.9562 22.7731 21.878 22.9051 21.9335C23.037 21.9891 23.1004 22.1318 23.0456 22.2506C22.9908 22.3694 22.9011 22.4477 22.846 22.4245Z" fill="#62F4F4"/>
</svg>
