<svg width="174" height="130" viewBox="0 0 174 130" fill="none" xmlns="http://www.w3.org/2000/svg">
<path d="M11.4327 118.234C25.3894 107.43 39.3513 96.6612 53.2148 85.721C54.1802 84.9692 54.639 82.9923 54.5578 81.6385C52.4158 49.3566 64.9754 24.0203 91.0441 5.5627C95.3777 2.49405 100.752 0.765552 106.959 0.477882C115.147 0.0811541 121.175 5.82702 121.486 14.0095C121.762 21.1641 119.017 27.3457 115.571 33.2861C107.896 46.4116 97.4237 57.2813 86.5993 67.7541C79.7412 74.3946 72.4896 80.6067 65.2219 87.2265C67.7735 90.8783 73.0338 93.0363 77.1935 92.1288C85.0875 90.4427 88.6423 88.1387 94.3293 84.9684C112.179 75.0238 126.85 61.1767 139.346 45.2883C148.647 33.464 157.079 20.9781 165.883 8.77571C166.657 7.71676 167.343 6.55858 168.133 5.60825C169.363 4.1214 170.707 3.43113 172.179 4.16236C173.723 4.62603 173.513 7.05008 173.288 8.33287C172.923 10.4452 172.111 12.5414 171.041 14.3762C154.432 43.4819 134.249 69.5474 105.94 88.3689C99.7227 92.4927 92.786 95.7142 85.8188 98.4602C75.8012 102.376 66.3135 101.429 58.7288 92.271C45.0741 102.078 31.6217 111.748 17.9358 121.596C23.3812 120.891 28.5361 120.223 33.7274 119.551C34.5986 119.438 35.4545 119.216 36.336 119.176C38.7214 119.051 41.7766 118.176 42.4775 121.552C43.1681 124.854 40.0149 125.3 37.9508 125.604C27.4954 127.216 16.9882 128.725 6.46087 129.83C2.16178 130.276 -0.308322 127.72 0.889427 123.656C4.24366 111.865 8.16813 100.184 12.1392 88.5704C12.5035 87.4907 14.134 85.694 16.3471 86.4398C18.0054 87.1838 18.3186 89.6506 18.0162 90.9066C16.1711 98.4834 13.9837 105.994 11.8742 113.531C11.5095 114.869 11.0722 116.216 10.6713 117.559C9.64192 119.683 10.3323 119.078 11.4327 118.234ZM60.9137 78.4923C60.9898 79.8099 62.7086 77.8542 63.0044 77.5947C78.4892 64.0109 93.5026 49.9719 105.16 32.8646C108.282 28.2935 110.71 23.0011 112.283 17.672C114.345 10.5833 109.871 6.40615 102.764 8.69088C98.1679 10.1711 93.4881 12.3628 89.7354 15.3562C73.7489 28.0094 62.7179 50.0504 61.2006 64.8857C60.6748 70.5585 60.8907 72.0793 60.9137 78.4923Z" fill="#62F4F4"/>
</svg>
