<svg width="176" height="65" viewBox="0 0 176 65" fill="none" xmlns="http://www.w3.org/2000/svg">
<path fill-rule="evenodd" clip-rule="evenodd" d="M1.09529 51.2859C2.67642 51.4245 2.75076 51.3934 3.0023 50.4868C3.1293 50.0292 3.38808 49.6391 3.57719 49.62C4.06659 49.5706 3.83666 48.2449 3.23263 47.633C2.47291 46.8635 1.72097 47.1002 1.33942 48.2286C1.1523 48.7812 0.827251 49.2507 0.616978 49.272C0.294179 49.3046 -0.0554383 50.2887 0.0060481 50.9915C0.0155405 51.1019 0.505697 51.2342 1.09529 51.2859ZM4.72858 47.72C5.39968 48.186 5.55331 48.1931 5.77389 47.7678C5.91609 47.4937 6.02261 47.1611 6.01105 47.029C5.99915 46.8969 6.20215 46.767 6.4618 46.7408C6.99924 46.6865 6.93595 47.9959 6.38075 48.4298C6.19844 48.5718 6.13949 48.7573 6.24906 48.842C6.55944 49.0808 8.6118 48.2016 8.87664 47.7158C9.05847 47.3824 9.20784 47.4032 9.52183 47.8066C9.74638 48.0955 10.0829 48.316 10.2694 48.2972C10.4558 48.2784 10.5112 48.1437 10.3928 47.9978C9.99021 47.5028 11.0656 46.8375 12.1196 46.9297C12.7596 46.986 13.1333 46.8881 13.1092 46.6706C13.0871 46.4706 13.4365 46.3506 13.9272 46.3896C14.5827 46.4415 14.769 46.3234 14.7206 45.8858C14.6858 45.571 14.3856 45.2746 14.0532 45.2266C13.4969 45.1466 13.497 45.132 14.0551 45.0411C14.3881 44.9867 15.0101 45.0824 15.4373 45.2538C15.8641 45.4248 16.5945 45.5791 17.0597 45.5962C17.5252 45.6132 18.0025 45.7458 18.1204 45.8908C18.2427 46.0415 18.5332 46.0051 18.7965 45.8067C19.0508 45.6151 19.0924 45.4731 18.8892 45.4907C18.6861 45.5086 18.4593 45.0925 18.3851 44.5663C18.2963 43.9357 18.4143 43.5929 18.7317 43.5608C18.9964 43.5341 19.2369 43.7281 19.2661 43.9921C19.2954 44.256 19.5621 44.4474 19.859 44.4174C20.2188 44.3811 20.3481 44.543 20.2473 44.9026C20.1245 45.3397 20.2348 45.3816 20.8299 45.1242C21.2338 44.9495 22.3204 44.7353 23.2447 44.6478C24.1691 44.5605 25.0183 44.3121 25.1316 44.0959C25.267 43.837 25.3593 43.8823 25.4009 44.2275C25.5213 45.2266 27.1875 45.0657 27.097 44.064C27.0531 43.578 27.0947 43.5764 27.5568 44.0444C27.8364 44.3277 28.2371 44.5418 28.4477 44.5205C28.6583 44.4993 28.8477 44.6357 28.8685 44.8242C28.8893 45.0123 29.2415 45.0857 29.6508 44.9878C30.0601 44.8895 30.3311 44.6771 30.2528 44.5162C30.1745 44.3549 30.4451 44.0649 30.8547 43.8718C31.3292 43.6479 31.6557 43.6392 31.7555 43.8478C31.8413 44.0277 32.0757 44.049 32.2761 43.8955C32.7936 43.4991 34.1425 43.3738 34.1806 43.7187C34.1982 43.8774 34.4227 43.9055 34.6796 43.7806C34.9919 43.6287 35.1018 43.7133 35.0112 44.0359C34.9277 44.3339 35.0823 44.4975 35.4155 44.4638C35.7125 44.4339 35.9414 44.2833 35.9243 44.1294C35.8826 43.7526 37.5252 43.6051 37.8137 43.9596C37.9407 44.116 38.2889 43.978 38.5985 43.6484C39.1224 43.0909 39.1485 43.0964 39.0452 43.7441C38.9822 44.1386 39.0954 44.4157 39.3104 44.394C39.517 44.3731 39.6617 44.1402 39.6325 43.8762C39.5971 43.5563 39.9153 43.3625 40.5871 43.2946C41.3707 43.2155 41.5791 43.0508 41.524 42.553C41.485 42.2011 41.6043 41.8979 41.7891 41.8793C41.9738 41.8606 42.1418 41.998 42.1625 42.1842C42.1831 42.3703 42.3651 42.4011 42.5674 42.252C42.811 42.0721 42.8845 42.1594 42.7859 42.5107C42.5771 43.2544 43.4932 43.771 44.2193 43.3189C45.2441 42.6807 47.255 42.6151 48.5516 43.1777L49.7996 43.7194L50.2808 42.6748C50.5457 42.1003 50.9759 41.5257 51.2372 41.3978C51.7766 41.1337 52.7667 42.0116 52.5998 42.6059C52.5282 42.8612 52.9005 42.9569 53.6654 42.8797C54.3731 42.8082 54.8938 42.5722 54.9742 42.2862C55.1414 41.6909 56.0901 42.201 56.1707 42.9297C56.2158 43.3367 56.3434 43.3141 57.032 42.7781C57.7946 42.1838 57.8808 42.177 58.5674 42.6538C59.0645 42.9992 59.3552 43.039 59.4865 42.7796C59.5921 42.5713 60.4248 42.2384 61.3369 42.0399C62.249 41.8417 62.8157 41.7822 62.596 41.9082C62.3762 42.0339 62.2246 42.3886 62.2587 42.6963C62.3363 43.3979 63.4161 43.2575 64.1776 42.4466C64.513 42.0895 65.2148 41.8382 65.9852 41.7989C67.0332 41.7454 67.2572 41.8516 67.323 42.433C67.3702 42.854 67.6827 43.1857 68.1104 43.269C68.9654 43.4356 71.3649 42.8358 71.5847 42.4005C71.8692 41.8374 72.311 42.0176 72.7528 42.8768C72.9918 43.3421 73.1796 43.5412 73.1697 43.3199C73.1598 43.0984 73.5299 42.8792 73.9918 42.8326C74.5144 42.7798 74.8114 42.5664 74.7784 42.2679C74.7492 42.004 74.8764 41.7728 75.0612 41.7541C75.2459 41.7355 75.421 41.9361 75.4502 42.2001C75.5071 42.7138 75.8269 42.7249 79.0513 42.3271C80.9268 42.0957 81.1194 42.1361 81.5653 42.8564C82.0997 43.7198 83.3397 43.8088 83.5667 42.9998C83.6438 42.7261 83.8394 42.563 84.0022 42.6375C84.1646 42.712 84.3846 42.6005 84.4911 42.3901C84.6332 42.1089 84.7591 42.0991 84.9655 42.3529C85.1201 42.5434 85.6127 42.6799 86.0606 42.657C86.508 42.6338 87.1841 42.813 87.5628 43.0552C88.2083 43.4682 88.2317 43.4522 87.9362 42.7992C87.6795 42.2318 87.7498 42.0902 88.3158 42.033C88.6977 41.9944 89.0233 42.0825 89.0395 42.2291C89.0832 42.6241 91.4745 42.9963 92.0947 42.705C92.3895 42.5665 92.7248 42.2875 92.8396 42.085C92.9666 41.8609 93.0736 41.9284 93.1134 42.2573C93.2134 43.0902 93.78 43.174 94.835 42.5117C95.4521 42.1243 95.8111 42.035 95.8363 42.2628C95.8579 42.4579 96.0575 42.5338 96.2795 42.4315C96.7799 42.2018 97.9893 42.6185 97.816 42.9615C97.7464 43.0992 97.9449 43.2056 98.2572 43.1974C99.1832 43.1734 99.9913 43.3001 100.267 43.5123C100.409 43.6219 100.939 43.6696 101.444 43.6186C102.106 43.5517 102.536 43.2146 102.981 42.412C103.432 41.6002 103.578 41.4867 103.521 41.993C103.458 42.5434 103.569 42.6422 104.054 42.4677C104.39 42.3464 104.684 42.4132 104.706 42.616C104.736 42.8863 104.917 42.8742 105.388 42.5698C106.261 42.0045 106.812 42.3315 106.664 43.3276C106.555 44.0607 106.591 44.0935 106.992 43.6219C108.024 42.4061 112.617 42.0018 113.927 43.0111C114.495 43.4481 114.938 43.5444 115.432 43.3376C116.653 42.8267 118.111 42.6245 118.36 42.9315C118.505 43.1097 118.789 43.0059 119.074 42.6709C119.684 41.9529 120.251 41.9014 120.324 42.5573C120.367 42.9482 120.62 43.0151 121.365 42.8328C121.906 42.7006 122.427 42.7408 122.522 42.9221C122.629 43.1251 123.209 42.9086 124.033 42.359C125.001 41.7136 125.484 41.5529 125.777 41.7785C126 41.9504 126.605 42.0481 127.123 41.9959C127.791 41.9284 128.084 42.0628 128.135 42.4597C128.204 42.9885 128.223 42.9862 128.49 42.4183C128.69 41.9951 128.939 41.8862 129.337 42.0482C130 42.3187 131.129 41.9788 131.078 41.5239C131.059 41.3499 131.297 41.2716 131.606 41.3503C132.009 41.4529 132.099 41.3617 131.921 41.0296C131.598 40.4259 131.936 40.4067 132.765 40.9823C133.217 41.2963 134.109 41.3858 135.579 41.2642C137.148 41.1345 137.7 41.1991 137.617 41.5022C137.468 42.0445 138.993 41.9037 139.48 41.3302C139.686 41.0885 139.856 41.0447 139.877 41.2287C139.897 41.4133 141.07 41.4679 142.608 41.3566C144.409 41.2258 145.291 41.043 145.264 40.8053C145.243 40.6098 145.644 40.4376 146.156 40.4225C147.278 40.3894 148.557 39.8688 148.512 39.4631C148.494 39.2958 148.221 39.337 147.878 39.5593C147.415 39.859 147.215 39.8361 147.014 39.4602C146.793 39.048 146.953 38.9827 148.038 39.043C148.745 39.0826 149.588 39.0951 149.912 39.0714C150.237 39.0477 150.515 39.1451 150.531 39.2881C150.547 39.4311 150.938 39.51 151.399 39.4634C151.861 39.4167 152.225 39.2525 152.208 39.0986C152.191 38.9448 152.404 38.7958 152.681 38.7678C152.958 38.7399 153.161 38.501 153.132 38.2371C153.067 37.6539 153.779 37.5374 154.42 38.0261C154.795 38.312 154.942 38.2652 155.158 37.7898C155.307 37.4633 155.798 37.1591 156.251 37.1134C156.704 37.0677 157.056 36.8639 157.033 36.6608C157.009 36.4451 157.284 36.4938 157.693 36.7779C158.294 37.1959 158.496 37.194 159.119 36.7648C159.519 36.49 160.064 35.9619 160.332 35.5914C160.981 34.6922 164.016 34.18 165.216 34.7669C166.049 35.1747 166.054 35.1943 165.571 36.2216C165.302 36.7943 164.847 37.3798 164.56 37.523C163.607 37.9977 161.617 40.3576 161.498 41.1543C161.434 41.5862 160.986 42.2199 160.502 42.5628C158.788 43.7795 157.942 44.8697 158.038 45.7398C158.094 46.2434 157.864 46.8136 157.476 47.1351C157.116 47.4346 156.939 47.8244 157.083 48.002C157.227 48.1796 157.169 48.3427 156.954 48.3645C156.738 48.3862 156.673 48.6112 156.808 48.8643C156.976 49.1774 156.843 49.346 156.394 49.3915C156.03 49.4282 155.747 49.592 155.765 49.7554C155.783 49.9186 155.567 50.3251 155.284 50.6581C155 50.9914 154.76 51.4844 154.748 51.7541C154.737 52.0241 154.612 52.3437 154.471 52.4646C153.984 52.8829 152.695 55.5386 152.569 56.3829C152.5 56.8493 152.313 57.2437 152.155 57.2597C151.997 57.2757 151.451 57.7675 150.943 58.3526C150.434 58.9377 149.802 59.4383 149.538 59.4649C148.967 59.5225 148.372 60.754 148.712 61.1726C148.843 61.3334 148.779 61.4825 148.57 61.5036C147.87 61.5743 147.267 62.6188 147.332 63.65C147.41 64.8947 148.306 65.1319 148.682 64.0077C148.822 63.5885 149.237 63.1944 149.603 63.1318C149.97 63.0692 150.591 62.9702 150.984 62.9115C151.893 62.7761 154.501 59.8241 155.176 58.1677C155.46 57.472 155.923 56.8791 156.206 56.8506C156.859 56.7846 157.48 55.6014 157.167 55.0177C157.003 54.7117 157.241 54.4755 157.937 54.2545C158.873 53.9574 159.074 53.5574 158.819 52.4972C158.772 52.2988 158.996 52.1306 159.318 52.1233C159.654 52.1159 160.06 51.7013 160.271 51.1494C160.696 50.0413 161.626 48.8631 162.114 48.8137C162.299 48.7951 162.422 48.5229 162.387 48.2088C162.352 47.8946 163.014 46.9188 163.857 46.0405C164.7 45.1619 165.723 43.8626 166.131 43.1534C166.538 42.4439 167.072 41.8434 167.316 41.8187C168.486 41.7005 170.012 40.3557 170.424 39.0787C170.662 38.343 170.818 37.6356 170.772 37.507C170.725 37.3784 170.989 37.2424 171.359 37.2051C171.728 37.1678 172.015 36.9933 171.995 36.8174C171.976 36.6414 172.338 36.4593 172.8 36.4127C173.322 36.3599 173.619 36.1465 173.586 35.848C173.557 35.5841 173.803 35.0497 174.134 34.6605C174.465 34.2712 174.719 33.8088 174.7 33.6329C174.68 33.4569 174.815 33.2977 175 33.279C175.185 33.2604 175.313 33.0413 175.286 32.7918C175.258 32.5426 175.399 32.268 175.599 32.1811C175.799 32.0947 175.937 31.4861 175.907 30.8293C175.866 29.9497 175.718 29.6482 175.347 29.6857C174.926 29.7282 174.927 29.6258 175.357 29.0645C175.769 28.5267 175.782 28.2663 175.421 27.7599C175.063 27.2575 174.848 27.2067 174.375 27.5126C173.951 27.787 173.729 27.7914 173.603 27.5275C173.506 27.3238 172.83 27.1811 172.102 27.21C171.373 27.239 170.708 27.1182 170.624 26.9413C170.54 26.7645 170.105 26.6567 169.659 26.7018C169.212 26.7469 168.83 26.6363 168.811 26.4558C168.791 26.2757 168.381 26.0295 167.901 25.9088C167.42 25.7881 167.012 25.5518 166.994 25.3832C166.975 25.215 166.647 25.0161 166.265 24.9418C165.884 24.8674 165.551 24.6235 165.526 24.3995C165.501 24.1756 165.085 23.8667 164.601 23.713C164.117 23.5591 163.707 23.3125 163.691 23.1647C163.675 23.0169 162.692 22.4213 161.508 21.8415C160.324 21.2617 159.343 20.6824 159.328 20.5546C159.285 20.1917 155.072 16.8547 154.683 16.8753C154.492 16.8852 153.483 16.0913 152.44 15.111C151.398 14.131 149.894 12.9698 149.098 12.5307C148.302 12.0919 147.682 11.6673 147.72 11.5875C147.906 11.1954 147.616 10.8128 146.327 9.74451C145.556 9.10553 144.179 7.92123 143.267 7.11244C142.355 6.30361 141.244 5.59281 140.799 5.53295C139.991 5.42407 139.743 4.90398 139.714 3.25291C139.696 2.1986 138.939 1.53557 138.378 2.08291C137.845 2.6035 137.646 2.45579 137.432 1.38239C137.254 0.4907 136.361 0.258953 136.458 1.12943C136.489 1.40807 136.32 1.59559 136.082 1.54582C135.845 1.49606 135.502 1.62774 135.319 1.83865C135.137 2.0492 134.558 2.60718 134.031 3.07892C133.03 3.97651 132.391 5.70045 132.851 6.26603C132.999 6.4481 133.132 6.98171 133.146 7.45191C133.161 7.92211 133.419 8.46367 133.722 8.65565C134.025 8.84734 134.294 9.19768 134.32 9.43377C134.346 9.67019 134.687 9.98676 135.077 10.1379C135.468 10.289 135.804 10.5876 135.825 10.8015C135.851 11.0729 135.761 11.0681 135.526 10.7858C135.287 10.4993 135.132 10.4927 134.996 10.7633C134.668 11.4117 136.902 13.7775 137.86 13.7973C138.499 13.8103 138.742 14.0126 138.836 14.6106C139.102 16.3085 139.195 16.5152 139.673 16.467C139.944 16.4396 140.115 16.6041 140.053 16.833C139.923 17.3087 142.014 19.1403 142.623 19.0837C142.844 19.0632 143.369 19.381 143.788 19.7897C144.206 20.1986 145.013 20.9214 145.579 21.3957C146.145 21.8703 146.624 22.4045 146.644 22.5827C146.679 22.8959 147.343 23.425 149.441 24.8096C150.158 25.2832 150.526 25.3586 150.762 25.0805C151.434 24.29 152.022 24.5498 151.901 25.5833C151.806 26.3948 151.875 26.5218 152.299 26.316C152.688 26.1266 152.772 26.209 152.645 26.6578C152.539 27.0361 152.6 27.1599 152.814 27.0018C152.998 26.8661 153.536 27.0014 154.009 27.3026C154.482 27.6039 154.751 27.8669 154.607 27.8876C154.462 27.9081 154.534 28.1913 154.766 28.5172C154.999 28.8428 155.386 29.0137 155.626 28.8968C155.911 28.7581 156.161 28.9906 156.344 29.5641C156.499 30.048 156.602 30.4648 156.575 30.4899C156.548 30.515 156.178 30.6773 155.753 30.8502C155.263 31.0498 155.045 31.0395 155.155 30.8213C155.315 30.5043 154.897 30.5303 152.077 31.0127C151.554 31.1021 151.35 31.3446 151.402 31.8149C151.453 32.2769 151.315 32.4477 150.963 32.3581C150.68 32.2864 150.251 32.4597 150.01 32.7432C149.766 33.0311 148.95 33.3219 148.164 33.4013C146.949 33.5239 146.805 33.4715 147.12 33.0214C147.321 32.7343 147.427 32.4932 147.357 32.4854C146.645 32.4073 145.704 32.5023 145.72 32.6507C145.745 32.8817 142.313 33.2093 141.843 33.0206C141.654 32.9452 140.361 33.0198 138.968 33.1867C137.195 33.3991 136.21 33.6768 135.684 34.1136C135.192 34.5217 134.273 34.804 133.03 34.9296C131.354 35.0989 131.09 35.0391 130.806 34.4263C130.512 33.7929 130.475 33.7863 130.384 34.3541C130.305 34.8535 130.217 34.8943 129.944 34.5603C129.665 34.2194 129.487 34.2293 128.966 34.6148C128.615 34.8743 128.315 34.9722 128.3 34.8324C128.284 34.6926 128.004 34.577 127.677 34.5754C127.35 34.5738 126.559 34.5628 125.919 34.5504C125.28 34.538 124.41 34.6954 123.986 34.9C123.562 35.1045 123.273 35.1573 123.345 35.0171C123.416 34.8769 122.36 34.9228 120.998 35.1189C118.99 35.408 118.511 35.3862 118.469 35.0045C118.397 34.3529 117.489 34.1806 117.095 34.7438C116.616 35.4291 115.496 35.7593 115.437 35.2324C115.399 34.8885 114.627 34.8749 111.839 35.1691C108.919 35.4769 108.162 35.456 107.58 35.0516C106.92 34.5932 106.834 34.6 106.316 35.1511C106.01 35.4763 105.507 35.7681 105.199 35.7992C104.89 35.8304 104.651 35.9768 104.667 36.1243C104.684 36.2721 104.32 36.6052 103.858 36.8643C103.058 37.3139 103.023 37.2968 103.093 36.4971C103.134 36.0359 103.102 35.7361 103.021 35.8309C102.941 35.9257 102.632 35.8162 102.336 35.5876C101.621 35.0374 101.159 35.1116 101.231 35.7649C101.284 36.2409 101.216 36.2429 100.554 35.7831C99.8917 35.3233 99.8236 35.3253 99.8763 35.8014C99.9499 36.4661 99.6345 36.5103 99.0672 35.9141C98.7306 35.5609 98.4401 35.5453 97.8156 35.8464C97.2987 36.096 96.7808 36.1486 96.3952 35.9915C96.0619 35.8553 95.6327 35.8592 95.442 35.9998C95.2514 36.1403 94.9276 36.0718 94.7228 35.8473C94.4626 35.5623 94.3143 35.5543 94.2321 35.8211C94.1026 36.2405 93.1095 36.1732 91.7171 35.6503C90.6264 35.241 88.9591 35.3647 89.0129 35.851C89.0345 36.0458 88.8162 36.1452 88.5279 36.0717C88.2396 35.9986 88.0191 36.0781 88.038 36.2483C88.0568 36.4189 87.9211 36.5736 87.7364 36.5923C87.5516 36.6109 87.379 36.4326 87.3528 36.1959C87.3266 35.9592 86.9936 35.5493 86.6131 35.2849C85.9884 34.8508 85.8756 34.8574 85.4559 35.3517C85.2001 35.6528 84.8291 35.9154 84.6309 35.9354C84.4331 35.9554 84.2975 36.2101 84.3298 36.5012C84.3831 36.9833 84.3247 36.9863 83.676 36.5358C83.1399 36.1633 82.3148 36.0946 80.3336 36.2571C78.2948 36.4245 77.7146 36.3718 77.7531 36.0225C77.7894 35.6911 77.6057 35.655 77.0587 35.8865C75.9192 36.3688 74.7509 36.3968 74.3799 35.951C74.1252 35.6448 74.0547 35.6458 74.0848 35.9552C74.1117 36.2285 73.842 36.3236 73.2628 36.2459C72.7428 36.1758 72.416 36.2667 72.4389 36.4744C72.4599 36.6641 72.251 36.7615 71.9749 36.6914C71.6963 36.6205 71.536 36.3385 71.6147 36.0581C71.7173 35.6929 71.5838 35.6068 71.1345 35.7482C70.7921 35.8559 70.5691 36.1117 70.6383 36.3162C70.7078 36.5211 70.5377 36.7117 70.2606 36.7396C69.9834 36.7676 69.7726 36.9345 69.7921 37.1104C69.8446 37.5845 69.1868 37.564 68.5474 37.0715C68.2392 36.8341 67.8731 36.7239 67.734 36.8266C67.5946 36.9293 67.2742 36.8213 67.0217 36.587C66.62 36.2138 66.5054 36.228 66.104 36.7007C65.8516 36.9979 65.2439 37.2372 64.7529 37.2324C64.0226 37.2256 63.8625 37.0775 63.8714 36.4144C63.8789 35.8194 63.8108 35.7318 63.6137 36.0839C63.386 36.4912 63.1315 36.5059 61.921 36.1805C60.2557 35.7331 59.3666 36.0156 59.7584 36.8679C60.1808 37.7876 58.7045 37.7456 57.5611 36.8052C56.6852 36.0849 56.3546 36.0287 54.0685 36.2104C52.6796 36.3209 50.9654 36.3672 50.2588 36.314C49.4101 36.2496 48.9875 36.3356 49.0132 36.5672C49.0345 36.7601 48.7452 37.1164 48.3699 37.3591C47.7924 37.7328 47.7108 37.7197 47.8363 37.2729C48.0562 36.4892 47.3868 36.3452 46.2535 36.9323C45.4841 37.3309 45.2088 37.3661 45.0735 37.0828C44.8538 36.6227 43.9312 36.6835 43.9834 37.1544C44.0072 37.3697 43.6432 37.4599 43.017 37.3937C42.1049 37.2972 42.0348 37.3541 42.2549 38.0112C42.4214 38.5084 42.3086 38.4351 41.8937 37.7766C41.3799 36.9606 41.1101 36.8368 40.0748 36.9413C39.4061 37.0089 38.6603 37.2983 38.4168 37.5846C38.1738 37.8712 37.9613 37.9832 37.9448 37.8341C37.9048 37.4726 35.1914 38.0009 34.7031 38.4656C34.4502 38.7062 34.3069 38.722 34.2837 38.5118C34.2183 37.9213 30.6444 38.2793 29.7194 38.9692C28.9423 39.5491 26.6771 40.0955 26.4963 39.7469C26.3642 39.493 26.2088 39.5162 25.9247 39.8308C25.6164 40.1725 25.4353 40.1594 25.0629 39.7684C24.6648 39.3502 24.5151 39.3482 24.0985 39.7549C23.8276 40.0197 23.5938 40.1293 23.5793 39.9981C23.5647 39.867 23.3399 39.968 23.079 40.2227C22.8185 40.4771 22.7009 40.8632 22.8173 41.0808C22.9501 41.3288 22.8402 41.4285 22.5225 41.3477C21.9529 41.203 21.7341 40.3462 22.2534 40.2938C22.4381 40.2751 22.5709 40.0935 22.5484 39.8904C22.5239 39.6693 22.2841 39.7585 21.9517 40.1124C21.646 40.4376 21.0678 40.737 20.6667 40.7775C20.2657 40.818 19.9534 40.9951 19.9729 41.1711C19.9924 41.347 19.8313 41.5088 19.615 41.5307C19.3986 41.5525 18.9716 41.8367 18.6659 42.1619C18.1438 42.7176 18.1055 42.7115 18.0338 42.064C17.9918 41.6849 17.8427 41.3742 17.7027 41.3738C17.5627 41.3734 17.0251 41.3497 16.5081 41.3217C15.989 41.2932 15.5848 41.4185 15.605 41.6012C15.6252 41.7832 15.4149 41.9548 15.1378 41.9828C14.8607 42.0108 14.6578 42.2496 14.687 42.5136C14.7162 42.7775 14.589 43.0087 14.4042 43.0274C14.2195 43.046 14.0537 42.9288 14.0357 42.7666C14.0178 42.6048 13.5117 42.4204 12.9113 42.3568C12.0999 42.2708 11.7321 42.3847 11.4794 42.7993C11.2922 43.1061 10.967 43.3745 10.7564 43.3957C10.5458 43.417 10.3963 43.6408 10.4242 43.8928C10.4577 44.1952 10.1303 44.3767 9.46423 44.4259C8.90833 44.4668 8.44035 44.3814 8.42424 44.2359C8.3877 43.9057 6.78592 44.7652 6.19439 45.4325C5.89304 45.7725 5.70258 45.8192 5.58892 45.581C5.46911 45.3301 5.24718 45.3473 4.79015 45.6432C4.44178 45.8683 4.25778 46.2404 4.38029 46.4697C4.50314 46.6989 4.45465 46.9513 4.27283 47.0301C4.09102 47.109 4.29623 47.4195 4.72858 47.72ZM32.6804 42.6513C32.8412 42.5325 33.0837 42.5724 33.2197 42.7395C33.3554 42.9066 33.2308 43.067 32.943 43.0961C32.3528 43.1557 32.2449 42.9725 32.6804 42.6513ZM34.9597 39.8575C35.2466 39.7182 35.3873 39.7584 35.2897 39.9513C35.1961 40.1367 34.9774 40.3028 34.8034 40.3203C34.3204 40.3691 34.4015 40.129 34.9597 39.8575ZM36.1633 38.2421C36.9117 38.1665 36.989 38.2325 36.6764 38.6794C36.3963 39.08 36.1886 39.1301 35.8087 38.8893C35.1059 38.4437 35.1607 38.3433 36.1633 38.2421ZM36.5913 40.9485C36.788 41.0386 36.964 41.2476 36.9824 41.4133C37.0007 41.579 36.8645 41.7296 36.6798 41.7483C36.495 41.7669 36.319 41.5576 36.2887 41.2835C36.2583 41.0093 36.3945 40.8584 36.5913 40.9485ZM40.8494 38.6491C41.0908 38.5315 41.2897 38.6839 41.3263 39.0146C41.3629 39.3454 41.2017 39.5341 40.94 39.4674C40.6929 39.4047 40.478 39.2401 40.4627 39.1019C40.4474 38.9637 40.6215 38.7597 40.8494 38.6491ZM93.8229 38.1352C94.0743 38.0131 94.3861 38.1117 94.5159 38.3541C94.6717 38.6454 94.5274 38.8178 94.0908 38.8619C93.3263 38.9391 93.1505 38.4623 93.8229 38.1352ZM103.671 39.9887C103.785 40.0765 103.711 40.3451 103.505 40.5855C103.208 40.9325 103.165 40.8996 103.297 40.4253C103.388 40.0971 103.556 39.9006 103.671 39.9887ZM105.787 37.0338C105.999 36.6356 106.083 36.7218 106.164 37.4192C106.224 37.9374 106.117 38.2481 105.911 38.1535C105.466 37.9502 105.438 37.6905 105.787 37.0338ZM144.548 39.2657C144.621 39.2583 144.791 39.4595 144.927 39.7127C145.062 39.9659 145.026 40.1878 144.848 40.2059C144.669 40.2239 144.498 40.0228 144.469 39.7589C144.44 39.4949 144.476 39.273 144.548 39.2657ZM143.892 33.1857C143.973 33.1775 144.149 33.3053 144.283 33.4697C144.416 33.6341 144.365 33.7848 144.17 33.8046C143.974 33.8243 143.798 33.6966 143.779 33.5206C143.759 33.3447 143.81 33.194 143.892 33.1857Z" fill="#62F4F4"/>
</svg>
