<svg width="153" height="78" viewBox="0 0 153 78" fill="none" xmlns="http://www.w3.org/2000/svg">
<path d="M141.225 67.4492C128.351 62.1927 115.501 56.9198 102.569 51.7734C101.675 51.4114 100.126 51.8248 99.2167 52.3675C77.6213 65.4424 55.193 66.3557 32.3441 55.9144C28.5456 54.1788 25.2774 51.2757 22.6894 47.305C19.2635 42.0734 20.9345 36.0391 26.4975 32.8772C31.36 30.1098 36.7095 29.6778 42.1607 29.7923C54.2293 30.0863 65.8076 33.032 77.2457 36.3523C84.4962 38.454 91.6006 40.969 98.9943 43.3471C100.549 40.352 100.024 36.1188 97.7928 33.7162C93.5845 29.1435 90.6166 27.6428 86.2268 25.0554C72.4524 16.9324 57.1909 12.3068 41.3486 9.84693C29.5578 8.0148 17.6423 6.99311 5.78029 5.6241C4.74708 5.49881 3.67882 5.46717 2.71511 5.2925C1.20895 5.02199 0.212499 4.38932 0.154094 3.15891C-0.118194 1.97734 1.64628 1.23931 2.62357 0.923062C4.23122 0.399579 5.99931 0.174606 7.68547 0.214106C34.2896 0.596487 60.1574 4.4239 84.121 16.2044C89.3771 18.7951 94.2834 22.1843 98.8712 25.7654C105.445 30.9263 108.438 37.4968 104.996 45.7861C117.061 51.205 128.952 56.5406 141.057 61.9651C138.472 58.6454 136.025 55.5027 133.561 52.3379C133.147 51.8068 132.664 51.325 132.297 50.7609C131.293 49.24 129.51 47.5507 131.584 45.8705C133.612 44.2233 135.135 46.1323 136.14 47.3773C141.283 53.6581 146.373 60.0104 151.191 66.5217C153.155 69.1826 152.33 71.7281 149.047 72.4107C139.567 74.471 129.945 76.117 120.352 77.7079C119.462 77.859 117.587 77.4381 117.253 75.7157C117.132 74.3582 118.724 73.2609 119.713 73.0054C125.685 71.4779 131.743 70.199 137.789 68.8594C138.858 68.6152 139.962 68.4153 141.049 68.1933C142.92 68.1011 142.234 67.8668 141.225 67.4492ZM94.5862 49.3323C95.4719 48.8061 93.4524 48.3847 93.1583 48.2843C77.7666 43.0293 62.24 38.2481 45.8739 36.7793C41.498 36.382 36.8882 36.701 32.5821 37.5949C26.8655 38.8034 25.6862 43.2507 30.0073 47.0901C32.8036 49.5721 36.1264 51.852 39.6492 53.2335C54.5877 59.1543 74.1393 58.4287 85.0261 54.0623C89.1681 52.3569 90.1412 51.6655 94.5862 49.3323Z" fill="#62F4F4"/>
</svg>
