<svg width="102" height="51" viewBox="0 0 102 51" fill="none" xmlns="http://www.w3.org/2000/svg">
<path d="M81.2565 10.9635C78.1492 8.51819 75.0858 6.04848 71.9996 3.58008C71.1785 2.91663 70.2925 2.1585 71.16 1.11322C72.0784 -0.0115631 73.1523 0.659171 74.0313 1.33021C79.4125 5.40498 84.7954 9.50151 90.1345 13.6224C93.5559 16.2683 96.9684 18.9476 100.339 21.673C102.202 23.1839 102.386 24.6169 100.79 26.437C95.49 32.5283 90.1062 38.5697 84.7574 44.6201C83.3597 46.199 81.9268 47.7691 80.4799 49.3071C80.0146 49.7933 79.4703 50.295 78.8471 50.5278C78.3468 50.7208 77.4991 50.726 77.1552 50.4396C76.7868 50.1328 76.5941 49.3018 76.7628 48.8328C77.0439 48.051 77.569 47.3098 78.138 46.6864C84.2768 39.9124 90.4525 33.1691 96.7002 26.3232C96.1842 26.3201 95.5278 26.2815 94.8767 26.3081C75.4629 27.0462 56.0403 27.8176 36.6125 28.5237C25.7446 28.9215 14.8697 29.2322 3.99653 29.5646C3.23128 29.5979 2.40811 29.6235 1.7009 29.38C1.13409 29.1722 0.351568 28.5612 0.341214 28.1462C0.337906 27.6761 1.03327 26.9142 1.56336 26.807C3.0501 26.4806 4.59817 26.3475 6.14096 26.2912C22.1603 25.6725 38.1708 25.0872 54.1813 24.5019C67.5521 24.0143 80.9334 23.5151 94.3164 23.0377C94.8886 23.0266 96.1172 23.0541 96.6928 23.0864C96.721 22.8661 86.2095 14.8443 81.2565 10.9635Z" fill="#29F6F6"/>
</svg>
