<svg width="137" height="37" viewBox="0 0 137 37" fill="none" xmlns="http://www.w3.org/2000/svg">
<path d="M129.331 23.8127C124.787 26.5337 120.412 29.1254 116.053 31.7327C115.181 32.2484 114.566 32.6133 113.616 33.4524C112.902 34.0673 111.423 35.4076 112.413 36.1207C113.281 36.6374 113.949 36.9079 115.583 36.1685C119.788 34.2369 123.55 31.666 127.3 29.1373C130.61 26.9019 133.089 25.1426 135.864 22.9776C137.16 21.9664 136.947 20.8587 135.536 19.7664C134.268 18.7864 132.982 17.7619 131.583 17.0004C126.55 14.2309 121.482 11.5876 116.409 8.88651C115.781 8.54753 115.306 8.24998 114.515 7.94056C113.554 7.57402 112.867 7.25892 112.465 8.0144C112.075 8.72781 113.081 9.64315 113.668 10.0217C118.517 13.2779 128.61 19.8518 129.083 20.307C125.891 20.7163 122.957 21.1614 119.965 21.4439C99.0981 23.3133 78.0177 23.7021 56.2597 19.2157C39.0366 15.6647 22.2145 10.2682 5.85444 2.50046C4.88621 2.04727 3.8787 1.66253 2.90381 1.30918C1.58684 0.812723 0.847645 0.765765 0.642664 1.36548C0.427928 2.56675 1.26861 3.10977 1.90923 3.59316C3.17657 4.57314 4.63614 5.33957 6.04918 6.08781C25.0279 15.9228 44.7953 21.5493 64.9947 24.8021C85.7265 28.1421 105.617 26.9805 125.188 24.1575C126.208 23.9696 128.815 23.7412 129.331 23.8127Z" fill="#62F4F4"/>
</svg>
